{"title":"Reign.S01E21.HDTV.x264-2HD","uid":10114575,"size":277578361,"categoryP":"video","categoryS":"tv_shows","magnet":"?xt=urn:btih:26b27b9d196107f1e4021ffa0d63d957b6463778&amp;dn=Reign.S01E21.HDTV.x264-2HD&amp;tr=udp%3A%2F%2Ftracker.openbittorrent.com%3A80&amp;tr=udp%3A%2F%2Fopen.demonii.com%3A1337&amp;tr=udp%3A%2F%2Ftracker.coppersurfer.tk%3A6969&amp;tr=udp%3A%2F%2Fexodus.desync.com%3A6969","seeders":2,"leechers":0,"uploader":"Xetron","files":2,"time":1399567823,"description":"Reign\n\nGenre: Drama, Fantasy\nYear: 2013\nCountry: USA\nRuntime: 42 min\nProducer: Brad Silberling\nCast: Toby Regbo, Torrance Coombs, Jenessa Grant\n\n.: Plot :.\nHidden between the lines of the history books is the story of Mary Stuart, the young woman the world would come to know as Mary, Queen of Scots. Queen of Scotland since she was six days old, the teenage Mary is already a headstrong monarch - beautiful, passionate, and poised at the very beginning of her tumultuous rise to power. Arriving in France with four close friends as her ladies-in-waiting, Mary has been sent to secure Scotland's strategic alliance by formalizing her arranged engagement to the French king's dashing son, Prince Francis. But the match isn't signed and sealed, it depends more on politics, religion and secret agendas than affairs of the heart. Prince Francis is intrigued by the fiery Scot, but like most young men, he resists the idea of settling down into marriage, especially when he has a history with a lady of the court and his own point of view on the wisdom of an alliance with Scotland. Still, an attraction between Mary and Francis is ignited. Further complicating things is Bash, Francis' roguish half-brother, who has a history of his own - despite his illegitimate birth, Bash is his father's favorite. And now that Bash has caught Mary's eye, a royal triangle may be forming. While at French Court, fierce foes and dark forces conspire to sabotage Mary's marriage to Francis and even threaten her life, until a mysterious shrouded guide becomes her ally. With danger and sexual intrigue around every dark castle corner, Mary rallies her ladies-in-waiting and steels herself, ready to rule the new land and balance the demands of her country and her heart.\n\n\n{rtf1ansiansicpg1252cocoartf1265cocoasubrtf190\n{fonttblf0fnilfcharset0 Tahoma;f1fswissfcharset0 Helvetica;}\n{colortbl;red255green255blue255;}\npaperw11900paperh16840margl1440margr1440vieww10800viewh8400viewkind0\ndeftab720\npardpardeftab720\nf0fs22 cf0 cb1 General\nComplete name : The 100 S01E08 720p HDTV DD5.1 x264.mkv\nFormat : Matroska\nFormat version : Version 4 / Version 2\nFile size : 1.46 GiB\nDuration : 41mn 51s\nOverall bit rate : 4 986 Kbps\nEncoded date : UTC 2014-05-08 06:51:20\nWriting application : mkvmerge v6.8.0 ('Theme for Great Cities') 64bit built on Mar 2 2014 21:34:26\nWriting library : libebml v1.3.0 + libmatroska v1.4.1\n\nVideo\nID : 1\nFormat : AVC\nFormat/Info : Advanced Video Codec\nFormat profile : &lt;a class=&quot;__cf_email__&quot; href=&quot;/cdn-cgi/l/email-protection&quot; data-cfemail=&quot;b0f8d9d7d8f0fc849e81&quot;&gt;[email&amp;#160;protected]&lt;/a&gt;&lt;script cf-hash='f9e31' type=&quot;text/javascript&quot;&gt;\n/* &lt;![CDATA[ */!function(){try{var t=&quot;currentScript&quot;in document?document.currentScript:function(){for(var t=document.getElementsByTagName(&quot;script&quot;),e=t.length;e--;)if(t[e].getAttribute(&quot;cf-hash&quot;))return t[e]}();if(t&amp;&amp;t.previousSibling){var e,r,n,i,c=t.previousSibling,a=c.getAttribute(&quot;data-cfemail&quot;);if(a){for(e=&quot;&quot;,r=parseInt(a.substr(0,2),16),n=2;a.length-n;n+=2)i=parseInt(a.substr(n,2),16)^r,e+=String.fromCharCode(i);e=document.createTextNode(e),c.parentNode.replaceChild(e,c)}}}catch(u){}}();/* ]]&gt; */&lt;/script&gt;\nFormat settings, CABAC : Yes\nFormat settings, ReFrames : 9 frames\nCodec ID : V_MPEG4/ISO/AVC\nDuration : 41mn 51s\nBit rate : 4 502 Kbps\nWidth : 1 280 pixels\nHeight : 718 pixels\nDisplay aspect ratio : 16:9\nFrame rate mode : Constant\nFrame rate : 23.976 fps\nColor space : YUV\nChroma subsampling : 4:2:0\nBit depth : 8 bits\nScan type : Progressive\nBits/(Pixel*Frame) : 0.204\nStream size : 1.32 GiB (90%)\nWriting library : x264 core 142 r2389 956c8d8\nEncoding settings : cabac=1 / ref=9 / deblock=1:-3:-3 / analyse=0x3:0x113 / me=umh / subme=9 / psy=1 / psy_rd=1.00:0.00 / mixed_ref=1 / me_range=16 / chroma_me=1 / trellis=1 / 8x8dct=1 / cqm=0 / deadzone=21,11 / fast_pskip=1 / chroma_qp_offset=-2 / threads=6 / lookahead_threads=1 / sliced_threads=0 / nr=0 / decimate=1 / interlaced=0 / bluray_compat=0 / constrained_intra=0 / bframes=7 / b_pyramid=2 / b_adapt=2 / b_bias=0 / direct=3 / weightb=1 / open_gop=0 / weightp=2 / keyint=250 / keyint_min=23 / scenecut=40 / intra_refresh=0 / rc_lookahead=50 / rc=crf / mbtree=1 / crf=17.0 / qcomp=0.60 / qpmin=0 / qpmax=69 / qpstep=4 / ip_ratio=1.40 / aq=1:1.00\nDefault : Yes\nForced : No\n\nAudio\nID : 2\nFormat : AC-3\nFormat/Info : Audio Coding 3\nMode extension : CM (complete main)\nFormat settings, Endianness : Big\nCodec ID : A_AC3\nDuration : 41mn 51s\nBit rate mode : Constant\nBit rate : 384 Kbps\nChannel(s) : 6 channels\nChannel positions : Front: L C R, Side: L R, LFE\nSampling rate : 48.0 KHz\nBit depth : 16 bits\nCompression mode : Lossy\nDelay relative to video : 21ms\nStream size : 115 MiB (8%)\nLanguage : English\nDefault : Yes\nForced : No\n\nText\nID : 3\nFormat : UTF-8\nCodec ID : S_TEXT/UTF8\nCodec ID/Info : UTF-8 Plain Text\nLanguage : English\nDefault : Yes\nForced : No\n\npardpardeftab720\nb cf0 Episode Name:\nb0  Day Trip\nb Season:\nb0  1\nb Episode:\nb0  8\nb Aired:\nb0  2014-05-07\n\nb Episode Overview:\nb0 \nClarke and Bellamy go on a mission to find supplies for approaching winter. Some of the 100 accidentally eat nuts with powerfully hallucinogenic properties and lose their grasp on reality. Meanwhile, Octavia seizes the opportunity to help a friend escape, and a terrifying event brings Clarke and Bellamy closer. On the Ark, Commander Shumway secretly assigns one of the 100 to kill one of his own, and the treacherous actions of Diane Sydney are revealed.\n\nb Episode Image\nb0   &lt;a href=&quot;\nhttps://cdn2.broadcasthe.net/tvdb/banners/episodes/268592/4828425.jpg&quot; rel=&quot;nofollow&quot; target=&quot;_NEW&quot;&gt;\nhttps://cdn2.broadcasthe.net/tvdb/banners/episodes/268592/4828425.jpg&lt;/a&gt;\n\npardpardeftab720\nf1fs24 cf0 }","torrent":{"xt":"urn:btih:26b27b9d196107f1e4021ffa0d63d957b6463778","amp;dn":"Reign.S01E21.HDTV.x264-2HD","amp;tr":["udp%3A%2F%2Ftracker.openbittorrent.com%3A80","udp%3A%2F%2Fopen.demonii.com%3A1337","udp%3A%2F%2Ftracker.coppersurfer.tk%3A6969","udp%3A%2F%2Fexodus.desync.com%3A6969"],"infoHash":"26b27b9d196107f1e4021ffa0d63d957b6463778","infoHashBuffer":{"type":"Buffer","data":[38,178,123,157,25,97,7,241,228,2,31,250,13,99,217,87,182,70,55,120]},"announce":[],"urlList":[]}}